<svg xmlns="http://www.w3.org/2000/svg" xmlns:xlink="http://www.w3.org/1999/xlink" style="" version="1.1" xml:space="preserve" width="128" height="128"><rect id="backgroundrect" width="100%" height="100%" x="0" y="0" fill="none" stroke="none"/><style type="text/css">
	.st0{fill:#FFE0B2;}
	.st1{fill:#424242;}
	.st2{fill:#90CAF9;}
	.st3{fill:#FFFFFF;}
</style><g class="currentLayer" style=""><title>Layer 1</title><g id="svg_1" class=""><g id="svg_2"><circle class="st0" cx="64" cy="33" r="31" id="svg_3"/><path class="st1" d="M64,66c-18.2,0-33-14.8-33-33S45.8,0,64,0s33,14.8,33,33S82.2,66,64,66z M64,4C48,4,35,17,35,33s13,29,29,29    s29-13,29-29S80,4,64,4z" id="svg_4"/></g><path class="st2" d="M126,126c0-34.2-27.8-62-62-62S2,91.8,2,126H126z" id="svg_5"/><path class="st1" d="M126,128H2c-1.1,0-2-0.9-2-2c0-25.9,15.5-48.3,37.7-58.3c8-3.6,17-5.7,26.3-5.7c6.6,0,13,1,19,2.9   c26,8.1,45,32.4,45,61.1C128,127.1,127.1,128,126,128z M4,124h60h60c-0.6-19.4-10.5-36.4-25.3-46.9c-6.1-4.4-13.1-7.6-20.6-9.4   C73.5,66.6,68.8,66,64,66c-5.9,0-11.6,0.9-17,2.4c-5,1.5-9.7,3.6-14,6.2C16.2,84.8,4.7,103.1,4,124z" id="svg_6"/></g><path class="st3" d="M56,127 " id="svg_7"/><line fill="none" stroke="#90caf9" stroke-width="4" stroke-dashoffset="" fill-rule="nonzero" marker-start="" marker-mid="" marker-end="" id="svg_9" x1="4.000001257871435" y1="126.00000196775179" x2="123.99999929193739" y2="125.6590928842317" style="color: rgb(144, 202, 249);" class="" stroke-opacity="1" transform="rotate(0.05243942141532898 63.99999999996687,125.829551696778) "/></g></svg>